<mxfile host="app.diagrams.net" agent="Mozilla/5.0 (Windows NT 10.0; Win64; x64) AppleWebKit/537.36 (KHTML, like Gecko) Chrome/133.0.0.0 Safari/537.36" version="26.1.0">
  <diagram name="Page-1" id="7RooYoRdFsqX6_77yfTw">
    <mxGraphModel dx="1707" dy="1603" grid="1" gridSize="10" guides="1" tooltips="1" connect="1" arrows="1" fold="1" page="1" pageScale="1" pageWidth="827" pageHeight="1169" math="0" shadow="0">
      <root>
        <mxCell id="0" />
        <mxCell id="1" parent="0" />
        <mxCell id="Jroc9Fgtr49Bew5Q0Y3l-1" value="Student" style="rounded=0;whiteSpace=wrap;html=1;" parent="1" vertex="1">
          <mxGeometry x="90" y="122" width="120" height="38" as="geometry" />
        </mxCell>
        <mxCell id="Jroc9Fgtr49Bew5Q0Y3l-2" value="Std_ID" style="ellipse;whiteSpace=wrap;html=1;align=center;fontStyle=4;" parent="1" vertex="1">
          <mxGeometry x="150" y="30" width="80" height="40" as="geometry" />
        </mxCell>
        <mxCell id="Jroc9Fgtr49Bew5Q0Y3l-4" value="Name" style="ellipse;whiteSpace=wrap;html=1;align=center;" parent="1" vertex="1">
          <mxGeometry x="30" y="30" width="80" height="45" as="geometry" />
        </mxCell>
        <mxCell id="Jroc9Fgtr49Bew5Q0Y3l-6" value="" style="endArrow=none;html=1;rounded=0;exitX=0.5;exitY=1;exitDx=0;exitDy=0;entryX=0;entryY=0;entryDx=0;entryDy=0;" parent="1" source="Jroc9Fgtr49Bew5Q0Y3l-4" target="Jroc9Fgtr49Bew5Q0Y3l-1" edge="1">
          <mxGeometry relative="1" as="geometry">
            <mxPoint x="330" y="230" as="sourcePoint" />
            <mxPoint x="490" y="230" as="targetPoint" />
          </mxGeometry>
        </mxCell>
        <mxCell id="Jroc9Fgtr49Bew5Q0Y3l-8" value="FName" style="ellipse;whiteSpace=wrap;html=1;align=center;" parent="1" vertex="1">
          <mxGeometry x="-30" y="-40" width="80" height="40" as="geometry" />
        </mxCell>
        <mxCell id="Jroc9Fgtr49Bew5Q0Y3l-9" value="LName" style="ellipse;whiteSpace=wrap;html=1;align=center;" parent="1" vertex="1">
          <mxGeometry x="80" y="-40" width="80" height="40" as="geometry" />
        </mxCell>
        <mxCell id="Jroc9Fgtr49Bew5Q0Y3l-10" value="" style="endArrow=none;html=1;rounded=0;exitX=0.75;exitY=0.95;exitDx=0;exitDy=0;exitPerimeter=0;entryX=0.288;entryY=0.022;entryDx=0;entryDy=0;entryPerimeter=0;" parent="1" source="Jroc9Fgtr49Bew5Q0Y3l-8" target="Jroc9Fgtr49Bew5Q0Y3l-4" edge="1">
          <mxGeometry relative="1" as="geometry">
            <mxPoint x="330" y="50" as="sourcePoint" />
            <mxPoint x="490" y="50" as="targetPoint" />
          </mxGeometry>
        </mxCell>
        <mxCell id="Jroc9Fgtr49Bew5Q0Y3l-11" value="" style="endArrow=none;html=1;rounded=0;exitX=0.5;exitY=1;exitDx=0;exitDy=0;entryX=1;entryY=0;entryDx=0;entryDy=0;" parent="1" source="Jroc9Fgtr49Bew5Q0Y3l-9" target="Jroc9Fgtr49Bew5Q0Y3l-4" edge="1">
          <mxGeometry relative="1" as="geometry">
            <mxPoint x="330" y="50" as="sourcePoint" />
            <mxPoint x="490" y="50" as="targetPoint" />
          </mxGeometry>
        </mxCell>
        <mxCell id="Jroc9Fgtr49Bew5Q0Y3l-12" value="Std_Age" style="ellipse;whiteSpace=wrap;html=1;align=center;" parent="1" vertex="1">
          <mxGeometry x="-60" y="70" width="70" height="40" as="geometry" />
        </mxCell>
        <mxCell id="Jroc9Fgtr49Bew5Q0Y3l-13" value="" style="endArrow=none;html=1;rounded=0;exitX=1;exitY=0.5;exitDx=0;exitDy=0;entryX=0;entryY=0.25;entryDx=0;entryDy=0;" parent="1" source="Jroc9Fgtr49Bew5Q0Y3l-12" target="Jroc9Fgtr49Bew5Q0Y3l-1" edge="1">
          <mxGeometry relative="1" as="geometry">
            <mxPoint x="280" y="50" as="sourcePoint" />
            <mxPoint x="440" y="50" as="targetPoint" />
          </mxGeometry>
        </mxCell>
        <mxCell id="Jroc9Fgtr49Bew5Q0Y3l-14" value="Std_Addres" style="ellipse;whiteSpace=wrap;html=1;align=center;" parent="1" vertex="1">
          <mxGeometry x="-70" y="150" width="80" height="40" as="geometry" />
        </mxCell>
        <mxCell id="Jroc9Fgtr49Bew5Q0Y3l-16" value="" style="endArrow=none;html=1;rounded=0;exitX=1;exitY=0.5;exitDx=0;exitDy=0;entryX=0;entryY=0.5;entryDx=0;entryDy=0;" parent="1" source="Jroc9Fgtr49Bew5Q0Y3l-14" target="Jroc9Fgtr49Bew5Q0Y3l-1" edge="1">
          <mxGeometry relative="1" as="geometry">
            <mxPoint x="280" y="50" as="sourcePoint" />
            <mxPoint x="440" y="50" as="targetPoint" />
          </mxGeometry>
        </mxCell>
        <mxCell id="Jroc9Fgtr49Bew5Q0Y3l-17" value="Department" style="whiteSpace=wrap;html=1;align=center;" parent="1" vertex="1">
          <mxGeometry x="90" y="510" width="120" height="40" as="geometry" />
        </mxCell>
        <mxCell id="Jroc9Fgtr49Bew5Q0Y3l-18" value="Dep_ID" style="ellipse;whiteSpace=wrap;html=1;align=center;fontStyle=4;" parent="1" vertex="1">
          <mxGeometry x="-30" y="420" width="80" height="40" as="geometry" />
        </mxCell>
        <mxCell id="Jroc9Fgtr49Bew5Q0Y3l-20" value="" style="endArrow=none;html=1;rounded=0;exitX=0;exitY=0;exitDx=0;exitDy=0;" parent="1" source="Jroc9Fgtr49Bew5Q0Y3l-17" target="Jroc9Fgtr49Bew5Q0Y3l-18" edge="1">
          <mxGeometry relative="1" as="geometry">
            <mxPoint x="-140" y="490" as="sourcePoint" />
            <mxPoint x="20" y="490" as="targetPoint" />
          </mxGeometry>
        </mxCell>
        <mxCell id="Jroc9Fgtr49Bew5Q0Y3l-21" value="Dep_Name" style="ellipse;whiteSpace=wrap;html=1;align=center;" parent="1" vertex="1">
          <mxGeometry x="-40" y="500" width="80" height="40" as="geometry" />
        </mxCell>
        <mxCell id="Jroc9Fgtr49Bew5Q0Y3l-22" value="" style="endArrow=none;html=1;rounded=0;entryX=1;entryY=0.5;entryDx=0;entryDy=0;" parent="1" source="Jroc9Fgtr49Bew5Q0Y3l-17" target="Jroc9Fgtr49Bew5Q0Y3l-21" edge="1">
          <mxGeometry relative="1" as="geometry">
            <mxPoint x="-140" y="490" as="sourcePoint" />
            <mxPoint x="20" y="490" as="targetPoint" />
          </mxGeometry>
        </mxCell>
        <mxCell id="Jroc9Fgtr49Bew5Q0Y3l-23" value="Course" style="whiteSpace=wrap;html=1;align=center;" parent="1" vertex="1">
          <mxGeometry x="520" y="120" width="100" height="40" as="geometry" />
        </mxCell>
        <mxCell id="Jroc9Fgtr49Bew5Q0Y3l-24" value="Cor_Name" style="ellipse;whiteSpace=wrap;html=1;align=center;" parent="1" vertex="1">
          <mxGeometry x="690" y="60" width="70" height="40" as="geometry" />
        </mxCell>
        <mxCell id="Jroc9Fgtr49Bew5Q0Y3l-25" value="Cor_ID" style="ellipse;whiteSpace=wrap;html=1;align=center;fontStyle=4;" parent="1" vertex="1">
          <mxGeometry x="570" y="20" width="70" height="40" as="geometry" />
        </mxCell>
        <mxCell id="Jroc9Fgtr49Bew5Q0Y3l-26" value="" style="endArrow=none;html=1;rounded=0;entryX=0;entryY=1;entryDx=0;entryDy=0;exitX=1;exitY=0;exitDx=0;exitDy=0;" parent="1" source="Jroc9Fgtr49Bew5Q0Y3l-23" target="Jroc9Fgtr49Bew5Q0Y3l-24" edge="1">
          <mxGeometry relative="1" as="geometry">
            <mxPoint x="260" y="130" as="sourcePoint" />
            <mxPoint x="420" y="130" as="targetPoint" />
          </mxGeometry>
        </mxCell>
        <mxCell id="Jroc9Fgtr49Bew5Q0Y3l-27" value="" style="endArrow=none;html=1;rounded=0;entryX=0.5;entryY=1;entryDx=0;entryDy=0;" parent="1" source="Jroc9Fgtr49Bew5Q0Y3l-23" target="Jroc9Fgtr49Bew5Q0Y3l-25" edge="1">
          <mxGeometry relative="1" as="geometry">
            <mxPoint x="260" y="130" as="sourcePoint" />
            <mxPoint x="420" y="130" as="targetPoint" />
          </mxGeometry>
        </mxCell>
        <mxCell id="Jroc9Fgtr49Bew5Q0Y3l-28" value="Cor_Duration" style="ellipse;whiteSpace=wrap;html=1;align=center;" parent="1" vertex="1">
          <mxGeometry x="470" y="30" width="80" height="40" as="geometry" />
        </mxCell>
        <mxCell id="Jroc9Fgtr49Bew5Q0Y3l-29" value="" style="endArrow=none;html=1;rounded=0;entryX=0.5;entryY=1;entryDx=0;entryDy=0;exitX=0;exitY=0;exitDx=0;exitDy=0;" parent="1" source="Jroc9Fgtr49Bew5Q0Y3l-23" target="Jroc9Fgtr49Bew5Q0Y3l-28" edge="1">
          <mxGeometry relative="1" as="geometry">
            <mxPoint x="260" y="130" as="sourcePoint" />
            <mxPoint x="420" y="130" as="targetPoint" />
          </mxGeometry>
        </mxCell>
        <mxCell id="Jroc9Fgtr49Bew5Q0Y3l-30" value="Cor_Describtion" style="ellipse;whiteSpace=wrap;html=1;align=center;" parent="1" vertex="1">
          <mxGeometry x="690" y="150" width="100" height="40" as="geometry" />
        </mxCell>
        <mxCell id="Jroc9Fgtr49Bew5Q0Y3l-31" value="" style="endArrow=none;html=1;rounded=0;entryX=0;entryY=0.5;entryDx=0;entryDy=0;exitX=1;exitY=1;exitDx=0;exitDy=0;" parent="1" source="Jroc9Fgtr49Bew5Q0Y3l-23" target="Jroc9Fgtr49Bew5Q0Y3l-30" edge="1">
          <mxGeometry relative="1" as="geometry">
            <mxPoint x="260" y="130" as="sourcePoint" />
            <mxPoint x="420" y="130" as="targetPoint" />
          </mxGeometry>
        </mxCell>
        <mxCell id="Jroc9Fgtr49Bew5Q0Y3l-32" value="Instructor" style="whiteSpace=wrap;html=1;align=center;" parent="1" vertex="1">
          <mxGeometry x="520" y="420" width="100" height="40" as="geometry" />
        </mxCell>
        <mxCell id="Jroc9Fgtr49Bew5Q0Y3l-33" value="Inst_ID" style="ellipse;whiteSpace=wrap;html=1;align=center;fontStyle=4;" parent="1" vertex="1">
          <mxGeometry x="680" y="345" width="70" height="30" as="geometry" />
        </mxCell>
        <mxCell id="Jroc9Fgtr49Bew5Q0Y3l-34" value="" style="endArrow=none;html=1;rounded=0;entryX=0;entryY=1;entryDx=0;entryDy=0;exitX=1;exitY=0;exitDx=0;exitDy=0;" parent="1" source="Jroc9Fgtr49Bew5Q0Y3l-32" target="Jroc9Fgtr49Bew5Q0Y3l-33" edge="1">
          <mxGeometry relative="1" as="geometry">
            <mxPoint x="420" y="360" as="sourcePoint" />
            <mxPoint x="580" y="360" as="targetPoint" />
          </mxGeometry>
        </mxCell>
        <mxCell id="Jroc9Fgtr49Bew5Q0Y3l-35" value="Inst_Name" style="ellipse;whiteSpace=wrap;html=1;align=center;" parent="1" vertex="1">
          <mxGeometry x="700" y="420" width="70" height="40" as="geometry" />
        </mxCell>
        <mxCell id="Jroc9Fgtr49Bew5Q0Y3l-36" value="" style="endArrow=none;html=1;rounded=0;entryX=0;entryY=0.5;entryDx=0;entryDy=0;exitX=1;exitY=0.5;exitDx=0;exitDy=0;" parent="1" source="Jroc9Fgtr49Bew5Q0Y3l-32" target="Jroc9Fgtr49Bew5Q0Y3l-35" edge="1">
          <mxGeometry relative="1" as="geometry">
            <mxPoint x="420" y="360" as="sourcePoint" />
            <mxPoint x="580" y="360" as="targetPoint" />
          </mxGeometry>
        </mxCell>
        <mxCell id="Jroc9Fgtr49Bew5Q0Y3l-37" value="Inst_Salary" style="ellipse;whiteSpace=wrap;html=1;align=center;" parent="1" vertex="1">
          <mxGeometry x="660" y="480" width="80" height="40" as="geometry" />
        </mxCell>
        <mxCell id="Jroc9Fgtr49Bew5Q0Y3l-38" value="" style="endArrow=none;html=1;rounded=0;entryX=0;entryY=0.5;entryDx=0;entryDy=0;exitX=1;exitY=1;exitDx=0;exitDy=0;" parent="1" source="Jroc9Fgtr49Bew5Q0Y3l-32" target="Jroc9Fgtr49Bew5Q0Y3l-37" edge="1">
          <mxGeometry relative="1" as="geometry">
            <mxPoint x="420" y="360" as="sourcePoint" />
            <mxPoint x="580" y="360" as="targetPoint" />
          </mxGeometry>
        </mxCell>
        <mxCell id="Jroc9Fgtr49Bew5Q0Y3l-39" value="Inst_Hour_Rate" style="ellipse;whiteSpace=wrap;html=1;align=center;" parent="1" vertex="1">
          <mxGeometry x="610" y="530" width="100" height="40" as="geometry" />
        </mxCell>
        <mxCell id="Jroc9Fgtr49Bew5Q0Y3l-43" value="" style="endArrow=none;html=1;rounded=0;exitX=0.75;exitY=1;exitDx=0;exitDy=0;" parent="1" source="Jroc9Fgtr49Bew5Q0Y3l-32" target="Jroc9Fgtr49Bew5Q0Y3l-39" edge="1">
          <mxGeometry relative="1" as="geometry">
            <mxPoint x="420" y="410" as="sourcePoint" />
            <mxPoint x="580" y="410" as="targetPoint" />
          </mxGeometry>
        </mxCell>
        <mxCell id="Jroc9Fgtr49Bew5Q0Y3l-51" value="ins_bouns" style="ellipse;whiteSpace=wrap;html=1;align=center;" parent="1" vertex="1">
          <mxGeometry x="520" y="570" width="100" height="40" as="geometry" />
        </mxCell>
        <mxCell id="Jroc9Fgtr49Bew5Q0Y3l-52" value="" style="endArrow=none;html=1;rounded=0;entryX=0.5;entryY=0;entryDx=0;entryDy=0;exitX=0.5;exitY=1;exitDx=0;exitDy=0;" parent="1" source="Jroc9Fgtr49Bew5Q0Y3l-32" target="Jroc9Fgtr49Bew5Q0Y3l-51" edge="1">
          <mxGeometry relative="1" as="geometry">
            <mxPoint x="420" y="410" as="sourcePoint" />
            <mxPoint x="580" y="410" as="targetPoint" />
          </mxGeometry>
        </mxCell>
        <mxCell id="Jroc9Fgtr49Bew5Q0Y3l-53" value="ins_address" style="ellipse;whiteSpace=wrap;html=1;align=center;" parent="1" vertex="1">
          <mxGeometry x="414" y="565" width="100" height="40" as="geometry" />
        </mxCell>
        <mxCell id="Jroc9Fgtr49Bew5Q0Y3l-54" value="" style="endArrow=none;html=1;rounded=0;exitX=0.56;exitY=0;exitDx=0;exitDy=0;entryX=0.08;entryY=1.025;entryDx=0;entryDy=0;exitPerimeter=0;entryPerimeter=0;" parent="1" source="Jroc9Fgtr49Bew5Q0Y3l-53" target="Jroc9Fgtr49Bew5Q0Y3l-32" edge="1">
          <mxGeometry relative="1" as="geometry">
            <mxPoint x="420" y="410" as="sourcePoint" />
            <mxPoint x="580" y="410" as="targetPoint" />
          </mxGeometry>
        </mxCell>
        <mxCell id="Jroc9Fgtr49Bew5Q0Y3l-55" value="Takes" style="shape=rhombus;perimeter=rhombusPerimeter;whiteSpace=wrap;html=1;align=center;" parent="1" vertex="1">
          <mxGeometry x="110" y="315" width="120" height="60" as="geometry" />
        </mxCell>
        <mxCell id="Jroc9Fgtr49Bew5Q0Y3l-56" value="" style="endArrow=none;html=1;rounded=0;exitX=0.5;exitY=0;exitDx=0;exitDy=0;entryX=0.433;entryY=0.933;entryDx=0;entryDy=0;entryPerimeter=0;" parent="1" source="Jroc9Fgtr49Bew5Q0Y3l-17" target="Jroc9Fgtr49Bew5Q0Y3l-55" edge="1">
          <mxGeometry relative="1" as="geometry">
            <mxPoint x="250" y="340" as="sourcePoint" />
            <mxPoint x="410" y="340" as="targetPoint" />
          </mxGeometry>
        </mxCell>
        <mxCell id="Jroc9Fgtr49Bew5Q0Y3l-57" value="" style="endArrow=none;html=1;rounded=0;exitX=0.558;exitY=0.067;exitDx=0;exitDy=0;exitPerimeter=0;entryX=0.75;entryY=1;entryDx=0;entryDy=0;" parent="1" source="Jroc9Fgtr49Bew5Q0Y3l-55" target="Jroc9Fgtr49Bew5Q0Y3l-1" edge="1">
          <mxGeometry relative="1" as="geometry">
            <mxPoint x="250" y="340" as="sourcePoint" />
            <mxPoint x="180" y="180" as="targetPoint" />
          </mxGeometry>
        </mxCell>
        <mxCell id="Jroc9Fgtr49Bew5Q0Y3l-58" value="M" style="text;strokeColor=none;align=center;fillColor=none;html=1;verticalAlign=middle;whiteSpace=wrap;rounded=0;" parent="1" vertex="1">
          <mxGeometry x="180" y="170" width="30" height="20" as="geometry" />
        </mxCell>
        <mxCell id="Jroc9Fgtr49Bew5Q0Y3l-59" value="1" style="text;strokeColor=none;align=center;fillColor=none;html=1;verticalAlign=middle;whiteSpace=wrap;rounded=0;" parent="1" vertex="1">
          <mxGeometry x="150" y="490" width="30" height="20" as="geometry" />
        </mxCell>
        <mxCell id="Jroc9Fgtr49Bew5Q0Y3l-60" value="Takes" style="shape=rhombus;perimeter=rhombusPerimeter;whiteSpace=wrap;html=1;align=center;" parent="1" vertex="1">
          <mxGeometry x="330" y="62" width="90" height="60" as="geometry" />
        </mxCell>
        <mxCell id="Jroc9Fgtr49Bew5Q0Y3l-61" value="" style="endArrow=none;html=1;rounded=0;exitX=1;exitY=0.75;exitDx=0;exitDy=0;entryX=0;entryY=0.5;entryDx=0;entryDy=0;" parent="1" source="Jroc9Fgtr49Bew5Q0Y3l-1" target="Jroc9Fgtr49Bew5Q0Y3l-60" edge="1">
          <mxGeometry relative="1" as="geometry">
            <mxPoint x="250" y="260" as="sourcePoint" />
            <mxPoint x="410" y="260" as="targetPoint" />
          </mxGeometry>
        </mxCell>
        <mxCell id="Jroc9Fgtr49Bew5Q0Y3l-62" value="" style="endArrow=none;html=1;rounded=0;entryX=0;entryY=0.25;entryDx=0;entryDy=0;exitX=1;exitY=0.5;exitDx=0;exitDy=0;" parent="1" source="Jroc9Fgtr49Bew5Q0Y3l-60" target="Jroc9Fgtr49Bew5Q0Y3l-23" edge="1">
          <mxGeometry relative="1" as="geometry">
            <mxPoint x="250" y="260" as="sourcePoint" />
            <mxPoint x="410" y="260" as="targetPoint" />
          </mxGeometry>
        </mxCell>
        <mxCell id="Jroc9Fgtr49Bew5Q0Y3l-63" value="M" style="text;strokeColor=none;align=center;fillColor=none;html=1;verticalAlign=middle;whiteSpace=wrap;rounded=0;" parent="1" vertex="1">
          <mxGeometry x="440" y="120" width="30" height="20" as="geometry" />
        </mxCell>
        <mxCell id="Jroc9Fgtr49Bew5Q0Y3l-67" value="" style="endArrow=none;html=1;rounded=0;entryX=0.5;entryY=0;entryDx=0;entryDy=0;exitX=0.692;exitY=1.026;exitDx=0;exitDy=0;exitPerimeter=0;" parent="1" source="Jroc9Fgtr49Bew5Q0Y3l-1" target="Jroc9Fgtr49Bew5Q0Y3l-55" edge="1">
          <mxGeometry relative="1" as="geometry">
            <mxPoint x="180" y="161" as="sourcePoint" />
            <mxPoint x="410" y="320" as="targetPoint" />
          </mxGeometry>
        </mxCell>
        <mxCell id="ZNtIcfvzLgaANDwzEkb3-1" value="M" style="text;strokeColor=none;align=center;fillColor=none;html=1;verticalAlign=middle;whiteSpace=wrap;rounded=0;" vertex="1" parent="1">
          <mxGeometry x="210" y="100" width="30" height="20" as="geometry" />
        </mxCell>
        <mxCell id="ZNtIcfvzLgaANDwzEkb3-2" value="Grades" style="ellipse;whiteSpace=wrap;html=1;align=center;" vertex="1" parent="1">
          <mxGeometry x="340" y="-30" width="60" height="40" as="geometry" />
        </mxCell>
        <mxCell id="ZNtIcfvzLgaANDwzEkb3-3" value="" style="endArrow=none;html=1;rounded=0;entryX=0.5;entryY=1;entryDx=0;entryDy=0;exitX=0.5;exitY=0;exitDx=0;exitDy=0;" edge="1" parent="1" source="Jroc9Fgtr49Bew5Q0Y3l-60" target="ZNtIcfvzLgaANDwzEkb3-2">
          <mxGeometry relative="1" as="geometry">
            <mxPoint x="240" y="100" as="sourcePoint" />
            <mxPoint x="400" y="100" as="targetPoint" />
          </mxGeometry>
        </mxCell>
        <mxCell id="ZNtIcfvzLgaANDwzEkb3-4" value="Contains" style="shape=rhombus;perimeter=rhombusPerimeter;whiteSpace=wrap;html=1;align=center;" vertex="1" parent="1">
          <mxGeometry x="310" y="375" width="90" height="60" as="geometry" />
        </mxCell>
        <mxCell id="ZNtIcfvzLgaANDwzEkb3-5" value="" style="endArrow=none;html=1;rounded=0;exitX=1;exitY=0;exitDx=0;exitDy=0;entryX=0;entryY=0.5;entryDx=0;entryDy=0;" edge="1" parent="1" source="Jroc9Fgtr49Bew5Q0Y3l-17" target="ZNtIcfvzLgaANDwzEkb3-4">
          <mxGeometry relative="1" as="geometry">
            <mxPoint x="240" y="380" as="sourcePoint" />
            <mxPoint x="400" y="380" as="targetPoint" />
          </mxGeometry>
        </mxCell>
        <mxCell id="ZNtIcfvzLgaANDwzEkb3-6" value="" style="endArrow=none;html=1;rounded=0;entryX=0;entryY=0;entryDx=0;entryDy=0;exitX=1;exitY=0.5;exitDx=0;exitDy=0;" edge="1" parent="1" source="ZNtIcfvzLgaANDwzEkb3-4" target="Jroc9Fgtr49Bew5Q0Y3l-32">
          <mxGeometry relative="1" as="geometry">
            <mxPoint x="420" y="460" as="sourcePoint" />
            <mxPoint x="400" y="380" as="targetPoint" />
          </mxGeometry>
        </mxCell>
        <mxCell id="ZNtIcfvzLgaANDwzEkb3-7" value="M" style="text;strokeColor=none;align=center;fillColor=none;html=1;verticalAlign=middle;whiteSpace=wrap;rounded=0;" vertex="1" parent="1">
          <mxGeometry x="460" y="390" width="30" height="20" as="geometry" />
        </mxCell>
        <mxCell id="ZNtIcfvzLgaANDwzEkb3-8" value="1" style="text;strokeColor=none;align=center;fillColor=none;html=1;verticalAlign=middle;whiteSpace=wrap;rounded=0;" vertex="1" parent="1">
          <mxGeometry x="210" y="475" width="20" height="20" as="geometry" />
        </mxCell>
        <mxCell id="ZNtIcfvzLgaANDwzEkb3-9" value="" style="endArrow=none;html=1;rounded=0;entryX=0;entryY=0.25;entryDx=0;entryDy=0;" edge="1" parent="1" source="ZNtIcfvzLgaANDwzEkb3-4" target="Jroc9Fgtr49Bew5Q0Y3l-32">
          <mxGeometry relative="1" as="geometry">
            <mxPoint x="310" y="410" as="sourcePoint" />
            <mxPoint x="470" y="410" as="targetPoint" />
          </mxGeometry>
        </mxCell>
        <mxCell id="ZNtIcfvzLgaANDwzEkb3-10" value="" style="endArrow=none;html=1;rounded=0;exitX=1;exitY=0.25;exitDx=0;exitDy=0;entryX=0.078;entryY=0.567;entryDx=0;entryDy=0;entryPerimeter=0;" edge="1" parent="1" source="Jroc9Fgtr49Bew5Q0Y3l-17" target="ZNtIcfvzLgaANDwzEkb3-4">
          <mxGeometry relative="1" as="geometry">
            <mxPoint x="240" y="440" as="sourcePoint" />
            <mxPoint x="400" y="440" as="targetPoint" />
          </mxGeometry>
        </mxCell>
        <mxCell id="ZNtIcfvzLgaANDwzEkb3-11" value="Manger" style="shape=rhombus;perimeter=rhombusPerimeter;whiteSpace=wrap;html=1;align=center;" vertex="1" parent="1">
          <mxGeometry x="340" y="460" width="90" height="50" as="geometry" />
        </mxCell>
        <mxCell id="ZNtIcfvzLgaANDwzEkb3-12" value="" style="endArrow=none;html=1;rounded=0;exitX=1;exitY=0.5;exitDx=0;exitDy=0;entryX=0;entryY=0.5;entryDx=0;entryDy=0;" edge="1" parent="1" source="Jroc9Fgtr49Bew5Q0Y3l-17" target="ZNtIcfvzLgaANDwzEkb3-11">
          <mxGeometry relative="1" as="geometry">
            <mxPoint x="240" y="430" as="sourcePoint" />
            <mxPoint x="400" y="430" as="targetPoint" />
          </mxGeometry>
        </mxCell>
        <mxCell id="ZNtIcfvzLgaANDwzEkb3-13" value="" style="endArrow=none;html=1;rounded=0;entryX=0;entryY=0.5;entryDx=0;entryDy=0;exitX=0.911;exitY=0.4;exitDx=0;exitDy=0;exitPerimeter=0;" edge="1" parent="1" source="ZNtIcfvzLgaANDwzEkb3-11" target="Jroc9Fgtr49Bew5Q0Y3l-32">
          <mxGeometry relative="1" as="geometry">
            <mxPoint x="240" y="430" as="sourcePoint" />
            <mxPoint x="400" y="430" as="targetPoint" />
          </mxGeometry>
        </mxCell>
        <mxCell id="ZNtIcfvzLgaANDwzEkb3-14" value="1" style="text;strokeColor=none;align=center;fillColor=none;html=1;verticalAlign=middle;whiteSpace=wrap;rounded=0;" vertex="1" parent="1">
          <mxGeometry x="430" y="450" width="30" height="20" as="geometry" />
        </mxCell>
        <mxCell id="ZNtIcfvzLgaANDwzEkb3-15" value="" style="endArrow=none;html=1;rounded=0;exitX=1;exitY=0.75;exitDx=0;exitDy=0;entryX=0.144;entryY=0.66;entryDx=0;entryDy=0;entryPerimeter=0;" edge="1" parent="1" source="Jroc9Fgtr49Bew5Q0Y3l-17" target="ZNtIcfvzLgaANDwzEkb3-11">
          <mxGeometry relative="1" as="geometry">
            <mxPoint x="240" y="450" as="sourcePoint" />
            <mxPoint x="400" y="450" as="targetPoint" />
          </mxGeometry>
        </mxCell>
        <mxCell id="ZNtIcfvzLgaANDwzEkb3-16" value="1" style="text;strokeColor=none;align=center;fillColor=none;html=1;verticalAlign=middle;whiteSpace=wrap;rounded=0;" vertex="1" parent="1">
          <mxGeometry x="230" y="530" width="30" height="20" as="geometry" />
        </mxCell>
        <mxCell id="ZNtIcfvzLgaANDwzEkb3-17" value="hire_date" style="ellipse;whiteSpace=wrap;html=1;align=center;" vertex="1" parent="1">
          <mxGeometry x="300" y="560" width="70" height="40" as="geometry" />
        </mxCell>
        <mxCell id="ZNtIcfvzLgaANDwzEkb3-18" value="" style="endArrow=none;html=1;rounded=0;entryX=0.5;entryY=1;entryDx=0;entryDy=0;exitX=1;exitY=0;exitDx=0;exitDy=0;" edge="1" parent="1" source="ZNtIcfvzLgaANDwzEkb3-17" target="ZNtIcfvzLgaANDwzEkb3-11">
          <mxGeometry relative="1" as="geometry">
            <mxPoint x="240" y="450" as="sourcePoint" />
            <mxPoint x="400" y="450" as="targetPoint" />
          </mxGeometry>
        </mxCell>
        <mxCell id="ZNtIcfvzLgaANDwzEkb3-19" value="teach" style="shape=rhombus;perimeter=rhombusPerimeter;whiteSpace=wrap;html=1;align=center;" vertex="1" parent="1">
          <mxGeometry x="520" y="255" width="90" height="60" as="geometry" />
        </mxCell>
        <mxCell id="ZNtIcfvzLgaANDwzEkb3-20" value="" style="endArrow=none;html=1;rounded=0;entryX=0.5;entryY=1;entryDx=0;entryDy=0;exitX=0.5;exitY=0;exitDx=0;exitDy=0;" edge="1" parent="1" source="Jroc9Fgtr49Bew5Q0Y3l-32" target="ZNtIcfvzLgaANDwzEkb3-19">
          <mxGeometry relative="1" as="geometry">
            <mxPoint x="270" y="270" as="sourcePoint" />
            <mxPoint x="430" y="270" as="targetPoint" />
          </mxGeometry>
        </mxCell>
        <mxCell id="ZNtIcfvzLgaANDwzEkb3-21" value="" style="endArrow=none;html=1;rounded=0;entryX=0.5;entryY=0;entryDx=0;entryDy=0;exitX=0.5;exitY=1;exitDx=0;exitDy=0;" edge="1" parent="1" source="Jroc9Fgtr49Bew5Q0Y3l-23" target="ZNtIcfvzLgaANDwzEkb3-19">
          <mxGeometry relative="1" as="geometry">
            <mxPoint x="270" y="270" as="sourcePoint" />
            <mxPoint x="430" y="270" as="targetPoint" />
          </mxGeometry>
        </mxCell>
        <mxCell id="ZNtIcfvzLgaANDwzEkb3-22" value="M" style="text;strokeColor=none;align=center;fillColor=none;html=1;verticalAlign=middle;whiteSpace=wrap;rounded=0;" vertex="1" parent="1">
          <mxGeometry x="580" y="180" width="30" height="20" as="geometry" />
        </mxCell>
        <mxCell id="ZNtIcfvzLgaANDwzEkb3-23" value="M" style="text;strokeColor=none;align=center;fillColor=none;html=1;verticalAlign=middle;whiteSpace=wrap;rounded=0;" vertex="1" parent="1">
          <mxGeometry x="530" y="380" width="30" height="20" as="geometry" />
        </mxCell>
        <mxCell id="ZNtIcfvzLgaANDwzEkb3-24" value="evaluation" style="ellipse;whiteSpace=wrap;html=1;align=center;" vertex="1" parent="1">
          <mxGeometry x="665" y="240" width="100" height="40" as="geometry" />
        </mxCell>
        <mxCell id="ZNtIcfvzLgaANDwzEkb3-25" value="" style="endArrow=none;html=1;rounded=0;entryX=0;entryY=0.5;entryDx=0;entryDy=0;exitX=1;exitY=0.5;exitDx=0;exitDy=0;" edge="1" parent="1" source="ZNtIcfvzLgaANDwzEkb3-19" target="ZNtIcfvzLgaANDwzEkb3-24">
          <mxGeometry relative="1" as="geometry">
            <mxPoint x="270" y="270" as="sourcePoint" />
            <mxPoint x="430" y="270" as="targetPoint" />
          </mxGeometry>
        </mxCell>
        <mxCell id="ZNtIcfvzLgaANDwzEkb3-26" value="Topic" style="whiteSpace=wrap;html=1;align=center;" vertex="1" parent="1">
          <mxGeometry x="290" y="235" width="100" height="40" as="geometry" />
        </mxCell>
        <mxCell id="ZNtIcfvzLgaANDwzEkb3-27" value="Topic_ID" style="ellipse;whiteSpace=wrap;html=1;align=center;fontStyle=4;" vertex="1" parent="1">
          <mxGeometry x="260" y="315" width="60" height="40" as="geometry" />
        </mxCell>
        <mxCell id="ZNtIcfvzLgaANDwzEkb3-28" value="" style="endArrow=none;html=1;rounded=0;exitX=1;exitY=0;exitDx=0;exitDy=0;entryX=0.25;entryY=1;entryDx=0;entryDy=0;" edge="1" parent="1" source="ZNtIcfvzLgaANDwzEkb3-27" target="ZNtIcfvzLgaANDwzEkb3-26">
          <mxGeometry relative="1" as="geometry">
            <mxPoint x="270" y="270" as="sourcePoint" />
            <mxPoint x="430" y="270" as="targetPoint" />
          </mxGeometry>
        </mxCell>
        <mxCell id="ZNtIcfvzLgaANDwzEkb3-29" value="Topic_Name" style="ellipse;whiteSpace=wrap;html=1;align=center;" vertex="1" parent="1">
          <mxGeometry x="180" y="240" width="80" height="30" as="geometry" />
        </mxCell>
        <mxCell id="ZNtIcfvzLgaANDwzEkb3-30" value="" style="endArrow=none;html=1;rounded=0;entryX=0;entryY=0.75;entryDx=0;entryDy=0;" edge="1" parent="1" source="ZNtIcfvzLgaANDwzEkb3-29" target="ZNtIcfvzLgaANDwzEkb3-26">
          <mxGeometry relative="1" as="geometry">
            <mxPoint x="270" y="270" as="sourcePoint" />
            <mxPoint x="430" y="270" as="targetPoint" />
          </mxGeometry>
        </mxCell>
        <mxCell id="ZNtIcfvzLgaANDwzEkb3-32" value="Classified" style="shape=rhombus;perimeter=rhombusPerimeter;whiteSpace=wrap;html=1;align=center;" vertex="1" parent="1">
          <mxGeometry x="440" y="190" width="80" height="50" as="geometry" />
        </mxCell>
        <mxCell id="ZNtIcfvzLgaANDwzEkb3-33" value="" style="endArrow=none;html=1;rounded=0;entryX=0.25;entryY=1;entryDx=0;entryDy=0;exitX=1;exitY=0.5;exitDx=0;exitDy=0;" edge="1" parent="1" source="ZNtIcfvzLgaANDwzEkb3-32" target="Jroc9Fgtr49Bew5Q0Y3l-23">
          <mxGeometry relative="1" as="geometry">
            <mxPoint x="270" y="270" as="sourcePoint" />
            <mxPoint x="430" y="270" as="targetPoint" />
          </mxGeometry>
        </mxCell>
        <mxCell id="ZNtIcfvzLgaANDwzEkb3-34" value="" style="endArrow=none;html=1;rounded=0;entryX=0;entryY=0.5;entryDx=0;entryDy=0;exitX=1;exitY=0.5;exitDx=0;exitDy=0;" edge="1" parent="1" source="ZNtIcfvzLgaANDwzEkb3-26" target="ZNtIcfvzLgaANDwzEkb3-32">
          <mxGeometry relative="1" as="geometry">
            <mxPoint x="270" y="270" as="sourcePoint" />
            <mxPoint x="430" y="270" as="targetPoint" />
          </mxGeometry>
        </mxCell>
        <mxCell id="ZNtIcfvzLgaANDwzEkb3-35" value="1" style="text;strokeColor=none;align=center;fillColor=none;html=1;verticalAlign=middle;whiteSpace=wrap;rounded=0;" vertex="1" parent="1">
          <mxGeometry x="390" y="210" width="20" height="20" as="geometry" />
        </mxCell>
        <mxCell id="ZNtIcfvzLgaANDwzEkb3-36" value="" style="endArrow=none;html=1;rounded=0;entryX=0.14;entryY=1;entryDx=0;entryDy=0;entryPerimeter=0;exitX=0.9;exitY=0.4;exitDx=0;exitDy=0;exitPerimeter=0;" edge="1" parent="1" source="ZNtIcfvzLgaANDwzEkb3-32" target="Jroc9Fgtr49Bew5Q0Y3l-23">
          <mxGeometry relative="1" as="geometry">
            <mxPoint x="270" y="270" as="sourcePoint" />
            <mxPoint x="430" y="270" as="targetPoint" />
          </mxGeometry>
        </mxCell>
        <mxCell id="ZNtIcfvzLgaANDwzEkb3-37" value="M" style="text;strokeColor=none;align=center;fillColor=none;html=1;verticalAlign=middle;whiteSpace=wrap;rounded=0;" vertex="1" parent="1">
          <mxGeometry x="490" y="170" width="30" height="20" as="geometry" />
        </mxCell>
      </root>
    </mxGraphModel>
  </diagram>
</mxfile>
